<?xml version="1.0" encoding="UTF-8"?>
<svg viewBox="-15 0 60 60" xmlns="http://www.w3.org/2000/svg">
 <path d="m10.57403,35.36207v-3.88804c0-.80117.16495-1.41383.49484-1.83798s.73048-.71477 1.20176-.87186 1.1782-.32204 2.12075-.49484c2.45065-.45557 3.67597-1.68875 3.67597-3.69953 0-.81688-.32989-1.54736-.98969-2.19144-.64408-.65979-1.49238-.98969-2.5449-.98969-.97398,0-1.74373.18851-2.30926.56553-.54983.37702-1.09965.92685-1.64947,1.64947-.53412.70691-1.05252,1.24889-1.55522,1.62591-.48699.36131-1.15463.54197-2.00293.54197-.95826,0-1.783-.36131-2.47421-1.08394-.6755-.73833-1.01325-1.60234-1.01325-2.59203 0-1.72802.56553-3.24397 1.6966-4.54783s2.5449-2.30141 4.2415-2.99262 3.38535-1.03681 5.06624-1.03681c1.64947,0 3.18898.24349 4.61852.73048s2.69414,1.20176 3.79379,2.14432 1.9558,2.08934 2.56847,3.44033c.62837,1.33529.94256,2.82767.94256,4.47714 0,2.95334-.74619,5.2469-2.23857,6.88066-1.47667,1.61805-3.51102,2.69414-6.10305,3.22825v.94256c0,.75404-.16495,1.42169-.49484,2.00293-.31418.56553-.7619,1.01325-1.34314,1.34314-.56553.31419-1.20962.47128-1.93224.47128s-1.37456-.15709-1.9558-.47128c-.56554-.32989-1.01325-.77761-1.34315-1.34314-.31419-.58124-.47128-1.24889-.47128-2.00293zm-.42415,10.15604c0-.75404.18851-1.45311.56554-2.09719 .39273-.65979.91114-1.18605 1.55522-1.57878s1.33529-.5891 2.07362-.5891 1.42955.19636 2.07362.5891 1.15463.919 1.53165,1.57878c.39273.64408.5891,1.34314.5891,2.09719 0,.76975-.19637,1.48452-.5891,2.14431-.37702.64408-.89543,1.15463-1.55522,1.53165-.64408.37702-1.32744.56553-2.05006.56553s-1.41384-.18851-2.07362-.56553c-.64408-.37702-1.16249-.88757-1.55522-1.53165-.37702-.65979-.56554-1.37456-.56554-2.14431z" fill="#dadada"/>
</svg>
